<svg xmlns="http://www.w3.org/2000/svg" version="1.1" xmlns:xlink="http://www.w3.org/1999/xlink"
    xmlns:svgjs="http://svgjs.dev/svgjs" width="1000" height="1205" viewBox="0 0 1000 1205">
    <g transform="matrix(1,0,0,1,0.386208272859335,-1.7049468085103854)">
        <svg viewBox="0 0 117 141" data-background-color="#ffffff"
            preserveAspectRatio="xMidYMid meet" height="1205" width="1000"
            xmlns="http://www.w3.org/2000/svg" xmlns:xlink="http://www.w3.org/1999/xlink">
            <g id="tight-bounds"
                transform="matrix(1,0,0,1,-0.04518636792454345,0.19949999999997203)">
                <svg viewBox="0 0 117.09037273584907 140.60052000000002" height="140.60052000000002"
                    width="117.09037273584907">
                    <g>
                        <svg viewBox="0 0 117.09037273584907 140.60052000000002"
                            height="140.60052000000002" width="117.09037273584907">
                            <g>
                                <svg viewBox="0 0 117.09037273584907 140.60052000000002"
                                    height="140.60052000000002" width="117.09037273584907">
                                    <g>
                                        <path d="M0 140.601v-140.601h117.09v140.601z" fill="#1d5730"
                                            stroke="transparent" stroke-width="0" rx="0%"
                                            data-fill-palette-color="tertiary"></path>
                                        <path d="M3.283 137.317v-134.034h110.524v134.034z"
                                            fill="#ffffff" stroke="transparent" stroke-width="0"
                                            rx="0%" data-fill-palette-color="quaternary"></path>
                                        <path d="M9.85 130.751v-120.901h97.391v120.901z"
                                            fill="#1d5730" stroke="transparent" stroke-width="0"
                                            data-fill-palette-color="tertiary"></path>
                                    </g>
                                    <g transform="matrix(1,0,0,1,19.69974,19.69974)"
                                        id="textblocktransform">
                                        <svg viewBox="0 0 77.69089273584908 101.20104000000002"
                                            height="101.20104000000002" width="77.69089273584908"
                                            id="textblock">
                                            <g>
                                                <svg
                                                    viewBox="0 0 77.69089273584908 101.20104000000002"
                                                    height="101.20104000000002"
                                                    width="77.69089273584908">
                                                    <g transform="matrix(1,0,0,1,0,0)">
                                                        <svg width="77.69089273584908"
                                                            viewBox="-2.05 -39.4 33.55 43.4"
                                                            height="101.20104000000002"
                                                            data-palette-color="#ffffff">
                                                            <path
                                                                d="M27.5-35.4L27.5-35.4Q27.3-33.4 27.23-31.5 27.15-29.6 27.15-28.6L27.15-28.6Q27.15-27.45 27.2-26.4 27.25-25.35 27.3-24.6L27.3-24.6 26.15-24.6Q25.7-28.25 24.93-30.33 24.15-32.4 22.6-33.33 21.05-34.25 18.15-34.25L18.15-34.25 15.5-34.25Q13.9-34.25 13.08-33.98 12.25-33.7 11.95-32.88 11.65-32.05 11.65-30.3L11.65-30.3 11.65-5.4Q11.65-3.55 12.05-2.63 12.45-1.7 13.55-1.4 14.65-1.1 16.8-1.05L16.8-1.05 16.8 0Q15.45-0.1 13.3-0.13 11.15-0.15 8.85-0.15L8.85-0.15Q6.85-0.15 5.03-0.13 3.2-0.1 1.95 0L1.95 0 1.95-1Q3.65-1.1 4.5-1.4 5.35-1.7 5.63-2.6 5.9-3.5 5.9-5.3L5.9-5.3 5.9-30.1Q5.9-31.95 5.63-32.83 5.35-33.7 4.48-34.02 3.6-34.35 1.95-34.4L1.95-34.4 1.95-35.4Q4.5-35.35 7.43-35.3 10.35-35.25 12.93-35.25 15.5-35.25 17.05-35.25L17.05-35.25Q19.35-35.25 22.28-35.27 25.2-35.3 27.5-35.4ZM10.15-17.9L19.85-17.9Q19.85-17.9 19.85-17.4 19.85-16.9 19.85-16.9L19.85-16.9 10.15-16.9Q10.15-16.9 10.15-17.4 10.15-17.9 10.15-17.9L10.15-17.9ZM19.75-24.5L20.9-24.5Q20.7-21.65 20.73-20.15 20.75-18.65 20.75-17.4L20.75-17.4Q20.75-16.15 20.8-14.65 20.85-13.15 21.05-10.3L21.05-10.3 19.9-10.3Q19.7-11.95 19.3-13.48 18.9-15 17.85-15.95 16.8-16.9 14.7-16.9L14.7-16.9 14.7-17.9Q16.8-17.9 17.8-19.03 18.8-20.15 19.18-21.7 19.55-23.25 19.75-24.5L19.75-24.5Z"
                                                                opacity="1"
                                                                transform="matrix(1,0,0,1,0,0)"
                                                                fill="#ffffff"
                                                                class="wordmark-text-0"
                                                                data-fill-palette-color="quaternary"
                                                                id="text-0"></path>
                                                        </svg>
                                                    </g>
                                                </svg>
                                            </g>
                                        </svg>
                                    </g>
                                </svg>
                            </g>
                            <g></g>
                        </svg>
                    </g>
                    <defs></defs>
                </svg>
                <rect width="117.09037273584907" height="140.60052000000002" fill="none"
                    stroke="none" visibility="hidden"></rect>
            </g>
        </svg>
    </g>
</svg>