{
  "accessors": [
    {
      "bufferView": 2,
      "componentType": 5126,
      "count": 1334,
      "max": [
        0.05316673964262009,
        0.019999980926513672,
        0.07599996775388718
      ],
      "min": [
        -0.053156789392232895,
        -0.0668211504817009,
        -0.05964481085538864
      ],
      "type": "VEC3"
    },
    {
      "bufferView": 2,
      "byteOffset": 16008,
      "componentType": 5126,
      "count": 1334,
      "max": [
        1.0,
        1.0,
        1.0
      ],
      "min": [
        -1.0,
        -1.0,
        -1.0
      ],
      "type": "VEC3"
    },
    {
      "bufferView": 1,
      "componentType": 5126,
      "count": 1334,
      "max": [
        1.0016449689865112,
        1.000195026397705
      ],
      "min": [
        0.0012606970267370343,
        -3.05027006106684e-05
      ],
      "type": "VEC2"
    },
    {
      "bufferView": 0,
      "componentType": 5125,
      "count": 5037,
      "type": "SCALAR"
    },
    {
      "bufferView": 2,
      "byteOffset": 32016,
      "componentType": 5126,
      "count": 1333,
      "max": [
        0.05366402119398117,
        0.020500000566244125,
        0.07635568827390671
      ],
      "min": [
        -0.053654249757528305,
        -0.06731920689344406,
        -0.0601302906870842
      ],
      "type": "VEC3"
    },
    {
      "bufferView": 2,
      "byteOffset": 48012,
      "componentType": 5126,
      "count": 1333,
      "max": [
        1.0,
        1.0,
        0.9986408948898315
      ],
      "min": [
        -1.0,
        -1.0,
        -0.9997978210449219
      ],
      "type": "VEC3"
    },
    {
      "bufferView": 1,
      "byteOffset": 10672,
      "componentType": 5126,
      "count": 1333,
      "max": [
        1.0016449689865112,
        1.000195026397705
      ],
      "min": [
        0.0012606970267370343,
        -3.05027006106684e-05
      ],
      "type": "VEC2"
    },
    {
      "bufferView": 0,
      "byteOffset": 20148,
      "componentType": 5125,
      "count": 5037,
      "type": "SCALAR"
    }
  ],
  "asset": {
    "extras": {
      "author": "Jack Kelly (https://sketchfab.com/slightlyintelligent)",
      "license": "CC-BY-NC-4.0 (http://creativecommons.org/licenses/by-nc/4.0/)",
      "source": "https://sketchfab.com/3d-models/3december2020-bmo-0ce18c5f562d469caf7a4653270f2c57",
      "title": "3December2020 - BMO"
    },
    "generator": "Sketchfab-12.66.0",
    "version": "2.0"
  },
  "bufferViews": [
    {
      "buffer": 0,
      "byteLength": 40296,
      "name": "floatBufferViews",
      "target": 34963
    },
    {
      "buffer": 0,
      "byteLength": 21336,
      "byteOffset": 40296,
      "byteStride": 8,
      "name": "floatBufferViews",
      "target": 34962
    },
    {
      "buffer": 0,
      "byteLength": 64008,
      "byteOffset": 61632,
      "byteStride": 12,
      "name": "floatBufferViews",
      "target": 34962
    }
  ],
  "buffers": [
    {
      "byteLength": 125640,
      "uri": "scene.bin"
    }
  ],
  "images": [
    {
      "uri": "textures/material_baseColor.png"
    }
  ],
  "materials": [
    {
      "name": "Outline",
      "pbrMetallicRoughness": {
        "baseColorFactor": [
          0.0,
          0.0,
          0.0,
          1.0
        ],
        "metallicFactor": 0.0,
        "roughnessFactor": 0.6
      }
    },
    {
      "name": "material",
      "pbrMetallicRoughness": {
        "baseColorTexture": {
          "index": 0
        },
        "metallicFactor": 0.0,
        "roughnessFactor": 0.333
      }
    }
  ],
  "meshes": [
    {
      "name": "BMO-material",
      "primitives": [
        {
          "attributes": {
            "NORMAL": 1,
            "POSITION": 0,
            "TEXCOORD_0": 2
          },
          "indices": 3,
          "material": 1,
          "mode": 4
        }
      ]
    },
    {
      "name": "Outline-material",
      "primitives": [
        {
          "attributes": {
            "NORMAL": 5,
            "POSITION": 4,
            "TEXCOORD_0": 6
          },
          "indices": 7,
          "material": 0,
          "mode": 4
        }
      ]
    }
  ],
  "nodes": [
    {
      "children": [
        1
      ],
      "matrix": [
        1.0,
        0.0,
        0.0,
        0.0,
        0.0,
        2.220446049250313e-16,
        -1.0,
        0.0,
        0.0,
        1.0,
        2.220446049250313e-16,
        0.0,
        0.0,
        0.0,
        0.0,
        1.0
      ],
      "name": "Sketchfab_model"
    },
    {
      "children": [
        2,
        4
      ],
      "name": "Collada visual scene group"
    },
    {
      "children": [
        3
      ],
      "name": "BMO"
    },
    {
      "mesh": 0,
      "name": "BMO-material"
    },
    {
      "children": [
        5
      ],
      "name": "BMO"
    },
    {
      "mesh": 1,
      "name": "Outline-material"
    }
  ],
  "samplers": [
    {
      "magFilter": 9729,
      "minFilter": 9987,
      "wrapS": 10497,
      "wrapT": 10497
    }
  ],
  "scene": 0,
  "scenes": [
    {
      "name": "Sketchfab_Scene",
      "nodes": [
        0
      ]
    }
  ],
  "textures": [
    {
      "sampler": 0,
      "source": 0
    }
  ]
}
